Cars Toon Maters Tall Tales (2010) 1080p AC3+DTS NLSubs-DMT

INFO:    http://www.cosmox.nl/film/takel-s-sterke-verhalen-dvd-8717418282592

         http://disneydvd.disney.go.com/cars-toon-maters-tall-tales.html

[IMG]http://img25.imageshack.us/img25/6383/brfront.jpg[/IMG]

Verenigde Staten
Animatie / Familie
37 minuten

Productiemaatschappij : Walt Disney Studios Home Entertainment
Stemmen orig. versie : Larry The Cable Guy, Keith Ferguson, 
Lindsey Collins, Elissa Knight, Mark Silverman, Bonnie Hunt, Craig Ferguson
Stemmen Ned. versie : Frits Lambrechts, Hans Somers, Lizemijn Libgott

Geef maar gas voor deze onvergetelijke verzameling Cars-tekenfilms waarin Takel, de lieve en 
grappige takelwagen uit de bekende film Cars, de hoofdrol speelt.
De creatieve breinen van Disney Pixar hebben negen leuke "Takel Toons" gemaakt over stierenvechten, 
autoraces,popconcerten, monstertruckfinales en zelfs vliegende schotels. 
En kijk ook naar de nieuwe, exclusieve, nooit eerder vertoonde Cars Toons Detectakel en Maan Takel.
Ga mee met Takel, de bekendste inwoner van Radiator Springs, en al je lievelingskarakters uit de wereld van Cars. 
Ze nemen je mee op een plezierrit waar de hele familie van in een deuk ligt!

INFO

Audio 1: DTS
Audio 2: AC3
Subs...: Dutch
Muxer..: NLUPPER


PLAYER INFO

General
Complete name                    : Cars.Toon.Maters.Tall.Tales.2010.1080p.AC3.DTS.NLSubs-DMT.mkv
Format                           : Matroska
File size                        : 3.66 GiB
Duration                         : 35mn 37s
Overall bit rate                 : 14.7 Mbps
Encoded date                     : UTC 2010-10-25 14:45:59
Writing application              : mkvmerge v4.3.0 ('Escape from the Island') built on Sep  5 2010 10:30:51
Writing library                  : libebml v1.0.0 + libmatroska v1.0.0

Video
ID                               : 1
Format                           : AVC
Format/Info                      : Advanced Video Codec
Format profile                   : High@L4.1
Format settings, CABAC           : Yes
Format settings, ReFrames        : 4 frames
Muxing mode                      : Container profile=Unknown@4.1
Codec ID                         : V_MPEG4/ISO/AVC
Duration                         : 35mn 37s
Bit rate                         : 12.6 Mbps
Width                            : 1 920 pixels
Height                           : 1 080 pixels
Display aspect ratio             : 16:9
Frame rate                       : 23.976 fps
Color space                      : YUV
Chroma subsampling               : 4:2:0
Bit depth                        : 8 bits
Scan type                        : Progressive
Bits/(Pixel*Frame)               : 0.253
Stream size                      : 3.05 GiB (83%)
Writing library                  : x264 core 102 r1666 d058f37
Encoding settings                : cabac=1 / ref=4 / deblock=1:-3:-3 / analyse=0x3:0x113 / 
me=umh / subme=10 / psy=1 / psy_rd=1.05:0.10 / mixed_ref=1 / me_range=48 / chroma_me=1 / 
trellis=2 / 8x8dct=1 / cqm=2 / deadzone=21,11 / fast_pskip=0 / chroma_qp_offset=-2 / 
threads=12 / sliced_threads=0 / nr=0 / decimate=1 / interlaced=0 / constrained_intra=0 / 
bframes=6 / b_pyramid=2 / b_adapt=2 / b_bias=0 / direct=3 / weightb=1 / open_gop=0 / 
weightp=2 / keyint=250 / keyint_min=25 / scenecut=40 / intra_refresh=0 / rc_lookahead=50 / 
rc=2pass / mbtree=1 / bitrate=12557 / ratetol=2.0 / qcomp=0.70 / qpmin=10 / qpmax=51 / 
qpstep=4 / cplxblur=20.0 / qblur=0.5 / vbv_maxrate=50000 / vbv_bufsize=50000 / 
ip_ratio=1.40 / aq=1:1.00 / nal_hrd=none
Language                         : English

Audio #1
ID                               : 2
Format                           : DTS
Format/Info                      : Digital Theater Systems
Format profile                   : ES
Muxing mode                      : Header stripping
Codec ID                         : A_DTS
Duration                         : 35mn 37s
Bit rate mode                    : Constant
Bit rate                         : 1 510 Kbps
Channel(s)                       : 6 channels
Channel positions                : Front: L C R, Side: L R, LFE
Sampling rate                    : 48.0 KHz
Bit depth                        : 24 bits
Stream size                      : 385 MiB (10%)
Title                            : DTSHD core5.1 1536k
Language                         : English

Audio #2
ID                               : 3
Format                           : AC-3
Format/Info                      : Audio Coding 3
Mode extension                   : CM (complete main)
Muxing mode                      : Header stripping
Codec ID                         : A_AC3
Duration                         : 35mn 37s
Bit rate mode                    : Constant
Bit rate                         : 640 Kbps
Channel(s)                       : 6 channels
Channel positions                : Front: L C R, Side: L R, LFE
Sampling rate                    : 48.0 KHz
Bit depth                        : 16 bits
Stream size                      : 163 MiB (4%)
Title                            : EC3 640
Language                         : English

Text
ID                               : 4
Format                           : UTF-8
Codec ID                         : S_TEXT/UTF8
Codec ID/Info                    : UTF-8 Plain Text
Title                            : Nederlands
Language                         : Dutch

Menu
00:00:08.008                     : en:01.Mater the Greater
00:03:37.800                     : en:02.Rescue Squad Mater
00:06:08.326                     : en:03.Monster Truck Mater
00:10:03.811                     : en:04.Unidentified Flying Mater
00:13:59.964                     : en:05.El Materdor
00:17:16.201                     : en:06.Moon Mater
00:21:02.302                     : en:07.Heavy Metal Mater
00:24:12.951                     : en:08.Mater Private Eye
00:28:28.373                     : en:09.Tokyo Mater

